<svg width="166" height="52" viewBox="0 0 166 52" fill="none" xmlns="http://www.w3.org/2000/svg">
<g clip-path="url(#clip0_1766_8839)">
<path d="M67.096 34.6124C61.8471 34.4381 57.5266 32.38 57.5266 26.057C57.5266 19.7655 61.8186 17.7345 67.0675 17.5602V15.8491H72.055V17.5602C77.3039 17.7345 81.5959 19.7655 81.5959 26.057C81.5959 32.38 77.2754 34.4381 72.0265 34.6124V36.3235H67.096V34.6124ZM67.1546 29.8277V22.3164C64.9223 22.4035 62.8341 23.1576 62.8341 26.057C62.8341 28.9564 65.0439 29.712 67.1606 29.8277H67.1546ZM71.9694 22.3164V29.8277C74.0861 29.712 76.2899 28.9579 76.2899 26.057C76.2899 23.1561 74.2077 22.4035 71.9754 22.3164H71.9694Z" fill="#333333"/>
<path d="M98.1929 20.5765H90.6815V23.4473H97.5829V28.0578H90.6815V31.6257H98.4542V36.2361H85.5198V15.936H98.1929V20.5765Z" fill="#333333"/>
<path d="M102.916 36.2361V15.936H111.848C121.564 15.9661 121.564 31.0458 111.848 31.0458H108.108V36.2361H102.916ZM111.818 20.5765C110.602 20.548 109.296 20.5765 108.108 20.5765V26.3768H111.818C114.661 26.3768 114.835 20.6126 111.818 20.5765Z" fill="#333333"/>
<path d="M140.962 15.8794H142.819V36.2365H137.512V27.1884L133.196 31.7132H132.616L128.324 27.1884V36.2365H123.012V15.8794H124.933L132.88 24.6947L140.962 15.8794Z" fill="#333333"/>
<path d="M159.696 33.6823H151.691L150.503 36.2362H145.429V35.485L154.564 15.6792H156.796L165.96 35.485V36.2362H160.885L159.696 33.6823ZM155.665 23.9176L153.374 29.2536H158.014L155.665 23.9176Z" fill="#333333"/>
<path d="M27.9111 39.4017C27.9111 39.7259 27.8149 40.0428 27.6347 40.3124C27.4546 40.582 27.1985 40.792 26.899 40.916C26.5994 41.04 26.2698 41.0724 25.9518 41.009C25.6338 40.9457 25.3418 40.7894 25.1126 40.5601C24.8835 40.3307 24.7275 40.0385 24.6644 39.7205C24.6014 39.4025 24.634 39.0729 24.7583 38.7734C24.8826 38.474 25.0929 38.2181 25.3626 38.0382C25.6323 37.8583 25.9494 37.7624 26.2736 37.7627C26.4888 37.7627 26.7018 37.8051 26.9006 37.8875C27.0993 37.9699 27.2799 38.0906 27.432 38.2428C27.5841 38.395 27.7046 38.5757 27.7868 38.7746C27.8691 38.9734 27.9113 39.1865 27.9111 39.4017Z" fill="#333333"/>
<path d="M6.41663 41.5664C6.30389 41.5665 6.19411 41.5303 6.1035 41.4632C6.01289 41.3962 5.94623 41.3017 5.91338 41.1939L1.22932 26.1562C1.20544 26.0773 1.2002 25.9938 1.21401 25.9125C1.22783 25.8312 1.26032 25.7542 1.30894 25.6875C1.35775 25.621 1.42152 25.5669 1.49512 25.5295C1.56872 25.4922 1.65006 25.4727 1.73258 25.4727H33.8389C33.9113 25.4672 33.9841 25.4767 34.0526 25.5007C34.1211 25.5246 34.184 25.5625 34.2372 25.6118C34.2905 25.6612 34.3329 25.721 34.362 25.7875C34.391 25.8541 34.406 25.9259 34.406 25.9985C34.406 26.0711 34.391 26.1429 34.362 26.2094C34.3329 26.276 34.2905 26.3358 34.2372 26.3851C34.184 26.4345 34.1211 26.4723 34.0526 26.4963C33.9841 26.5202 33.9113 26.5298 33.8389 26.5243H19.6095L26.7317 39.1433C26.78 39.2282 26.8036 39.3249 26.8 39.4226C26.7963 39.5202 26.7656 39.6149 26.7111 39.696C26.6567 39.7771 26.5807 39.8414 26.4917 39.8818C26.4028 39.9222 26.3043 39.9369 26.2074 39.9245L13.2579 38.2855H13.2234C13.1167 38.2649 13.0188 38.2126 12.9425 38.1353C12.9198 38.1106 12.8987 38.0845 12.8794 38.0571L12.8478 38.0016L7.75665 27.9619L6.94092 41.0737C6.93398 41.1966 6.88392 41.313 6.79956 41.4026C6.7152 41.4922 6.60195 41.5491 6.47973 41.5634L6.41663 41.5664ZM14.0992 37.3316L25.2986 38.7482L18.7562 27.1567L14.0992 37.3316ZM2.44916 26.5258L6.06811 38.1503L6.7907 26.5258H2.44916ZM8.20883 26.5258L13.297 36.5504L17.8864 26.5258H8.20883Z" fill="#333333"/>
<path d="M18.7067 50.4043C18.599 50.4029 18.4942 50.3688 18.4062 50.3067L6.1042 41.4688C6.03086 41.415 5.97267 41.3431 5.93525 41.2601C5.89783 41.1771 5.88246 41.0859 5.89062 40.9953C5.89878 40.9047 5.93019 40.8177 5.98182 40.7427C6.03344 40.6678 6.10354 40.6074 6.18533 40.5675L13.0957 37.2911C13.159 37.2603 13.2279 37.2429 13.2982 37.2398C13.3685 37.2367 13.4386 37.248 13.5044 37.273C13.5705 37.2973 13.6311 37.3345 13.6827 37.3825C13.7343 37.4305 13.7758 37.4882 13.8048 37.5524L19.1889 49.6667C19.2248 49.7468 19.24 49.8347 19.2332 49.9222C19.2264 50.0097 19.1978 50.0941 19.15 50.1678C19.1022 50.2414 19.0368 50.3019 18.9596 50.3438C18.8824 50.3856 18.796 50.4074 18.7082 50.4073L18.7067 50.4043ZM7.44723 41.1338L17.4358 48.3162L13.0597 38.4718L7.44723 41.1338Z" fill="#333333"/>
<path d="M18.7067 50.4041C18.6095 50.4044 18.5142 50.3778 18.4313 50.3272C18.3484 50.2766 18.2811 50.204 18.2369 50.1175C18.1927 50.031 18.1733 49.9339 18.1809 49.8371C18.1886 49.7402 18.2229 49.6474 18.28 49.5688L25.8469 39.0905C25.9317 38.9851 26.0536 38.9163 26.1877 38.8983C26.3217 38.8802 26.4575 38.9144 26.5671 38.9937C26.6766 39.0729 26.7515 39.1913 26.7763 39.3242C26.8011 39.4572 26.7739 39.5945 26.7002 39.708L19.1333 50.1833C19.085 50.2515 19.0211 50.3072 18.9469 50.3456C18.8726 50.384 18.7903 50.4041 18.7067 50.4041Z" fill="#333333"/>
<path d="M46.1289 41.5664H46.0659C45.9436 41.5521 45.8304 41.4952 45.746 41.4056C45.6617 41.316 45.6116 41.1995 45.6047 41.0767L44.7874 27.9649L39.6963 37.9985C39.6865 38.0195 39.6749 38.0396 39.6617 38.0586C39.6452 38.0812 39.6287 38.1037 39.6106 38.1247C39.5315 38.2106 39.4256 38.2673 39.3102 38.2855H39.2861L26.3366 39.9244C26.2397 39.9372 26.1412 39.9225 26.0521 39.8822C25.963 39.8419 25.887 39.7775 25.8326 39.6962C25.7783 39.615 25.7477 39.5201 25.7444 39.4224C25.7411 39.3247 25.7651 39.228 25.8139 39.1433L33.3747 25.7506C33.3896 25.7211 33.4077 25.6934 33.4288 25.668C33.45 25.6417 33.4737 25.6176 33.4994 25.5959C33.594 25.5162 33.7138 25.4726 33.8374 25.4727H50.813C50.896 25.4721 50.9779 25.4911 51.0522 25.528C51.1265 25.565 51.1911 25.619 51.2407 25.6855C51.2902 25.7521 51.3235 25.8294 51.3376 25.9111C51.3518 25.9929 51.3466 26.0768 51.3223 26.1562L46.6337 41.1939C46.6002 41.3016 46.5331 41.3958 46.4423 41.4628C46.3516 41.5298 46.2418 41.5661 46.1289 41.5664ZM33.7894 27.1582L27.247 38.7482L38.4449 37.3315L33.7894 27.1582ZM45.7534 26.5258L46.4775 38.1503L50.0949 26.5258H45.7534ZM34.6592 26.5258L39.2471 36.5504L44.3352 26.5258H34.6592Z" fill="#333333"/>
<path d="M33.839 50.4043C33.7512 50.4044 33.6648 50.3826 33.5876 50.3408C33.5104 50.2989 33.4449 50.2384 33.3971 50.1648C33.3493 50.0911 33.3207 50.0067 33.314 49.9192C33.3072 49.8317 33.3224 49.7438 33.3583 49.6637L38.7424 37.5495C38.771 37.4847 38.8123 37.4264 38.864 37.378C38.9156 37.3296 38.9765 37.292 39.0429 37.2676C39.1094 37.2433 39.1801 37.2325 39.2508 37.236C39.3215 37.2395 39.3907 37.2572 39.4544 37.2881L46.3648 40.5645C46.4466 40.6044 46.5167 40.6648 46.5683 40.7397C46.62 40.8147 46.6514 40.9017 46.6595 40.9923C46.6677 41.0829 46.6523 41.1742 46.6149 41.2571C46.5775 41.3401 46.5193 41.412 46.446 41.4659L34.156 50.3037C34.0636 50.3699 33.9526 50.4051 33.839 50.4043ZM39.4845 38.4718L35.1099 48.3162L45.0984 41.1339L39.4845 38.4718Z" fill="#333333"/>
<path d="M33.8389 50.404H18.7067C18.6343 50.4095 18.5615 50.4 18.493 50.376C18.4245 50.3521 18.3616 50.3143 18.3084 50.2649C18.2551 50.2155 18.2127 50.1557 18.1836 50.0892C18.1546 50.0227 18.1396 49.9508 18.1396 49.8782C18.1396 49.8057 18.1546 49.7338 18.1836 49.6673C18.2127 49.6008 18.2551 49.5409 18.3084 49.4916C18.3616 49.4422 18.4245 49.4044 18.493 49.3805C18.5615 49.3565 18.6343 49.347 18.7067 49.3525H32.8084L25.8469 39.7125C25.7644 39.5993 25.7303 39.458 25.752 39.3197C25.7737 39.1814 25.8494 39.0573 25.9626 38.9748C26.0757 38.8924 26.217 38.8582 26.3553 38.8799C26.4937 38.9016 26.6177 38.9774 26.7002 39.0905L34.2656 49.5658C34.3228 49.6443 34.3571 49.7372 34.3647 49.834C34.3723 49.9308 34.353 50.0279 34.3088 50.1144C34.2646 50.2009 34.1973 50.2735 34.1143 50.3241C34.0314 50.3747 33.9361 50.4013 33.8389 50.401V50.404Z" fill="#333333"/>
<path d="M27.9111 12.5965C27.9111 12.2723 27.8149 11.9553 27.6347 11.6858C27.4546 11.4162 27.1985 11.2061 26.899 11.0821C26.5994 10.9581 26.2698 10.9258 25.9518 10.9891C25.6338 11.0525 25.3418 11.2087 25.1126 11.4381C24.8835 11.6675 24.7275 11.9596 24.6644 12.2777C24.6014 12.5957 24.634 12.9253 24.7583 13.2247C24.8826 13.5242 25.0929 13.7801 25.3626 13.96C25.6323 14.1399 25.9494 14.2358 26.2736 14.2355C26.4888 14.2355 26.7018 14.1931 26.9006 14.1107C27.0993 14.0283 27.2799 13.9075 27.432 13.7553C27.5841 13.6031 27.7046 13.4224 27.7868 13.2236C27.8691 13.0247 27.9113 12.8116 27.9111 12.5965Z" fill="#333333"/>
<path d="M7.3526 26.5257H1.73263C1.65011 26.5259 1.5687 26.5067 1.49499 26.4695C1.42128 26.4324 1.35734 26.3785 1.30834 26.3121C1.25934 26.2457 1.22666 26.1687 1.21294 26.0873C1.19922 26.0059 1.20485 25.9225 1.22938 25.8437L5.91343 10.803C5.94827 10.6842 6.0246 10.5819 6.12855 10.5146C6.23249 10.4473 6.35713 10.4196 6.47978 10.4365C6.602 10.4508 6.71526 10.5077 6.79962 10.5973C6.88398 10.6869 6.93403 10.8033 6.94098 10.9262L7.75671 24.0364L12.8479 14.0028C12.8584 13.9833 12.8689 13.9638 12.8809 13.9458C12.8988 13.9194 12.9183 13.8944 12.9395 13.8706C13.0171 13.7926 13.1167 13.7402 13.2249 13.7204H13.258L26.2075 12.0814C26.3044 12.0694 26.4028 12.0844 26.4917 12.125C26.5806 12.1656 26.6564 12.2301 26.7108 12.3112C26.7652 12.3924 26.7959 12.4871 26.7996 12.5847C26.8034 12.6823 26.7799 12.7791 26.7318 12.8641L19.6096 25.4831H33.839C33.9114 25.4777 33.9841 25.4872 34.0527 25.5111C34.1212 25.5351 34.184 25.5729 34.2373 25.6223C34.2905 25.6716 34.333 25.7314 34.362 25.798C34.3911 25.8645 34.4061 25.9363 34.4061 26.0089C34.4061 26.0815 34.3911 26.1533 34.362 26.2199C34.333 26.2864 34.2905 26.3462 34.2373 26.3956C34.184 26.4449 34.1212 26.4828 34.0527 26.5067C33.9841 26.5307 33.9114 26.5402 33.839 26.5347H7.3526V26.5257ZM8.20889 25.4741H17.8865L13.2971 15.448L8.20889 25.4741ZM2.44921 25.4741H6.79075L6.06816 13.8526L2.44921 25.4741ZM14.0993 14.6683L18.7563 24.8417L25.2986 13.2517L14.0993 14.6683Z" fill="#333333"/>
<path d="M13.315 14.7631C13.237 14.7633 13.16 14.7458 13.0897 14.712L6.17928 11.4355C6.0975 11.3956 6.0274 11.3353 5.97577 11.2603C5.92415 11.1854 5.89273 11.0984 5.88458 11.0077C5.87642 10.9171 5.89179 10.8259 5.92921 10.7429C5.96663 10.66 6.02482 10.5881 6.09816 10.5342L18.4002 1.69337C18.494 1.62579 18.6075 1.59103 18.7231 1.59447C18.8387 1.59792 18.95 1.63938 19.0396 1.71243C19.1293 1.78549 19.1923 1.88606 19.219 1.99858C19.2457 2.11109 19.2346 2.22928 19.1874 2.33483L13.8033 14.4536C13.774 14.5177 13.7325 14.5753 13.6809 14.6233C13.6293 14.6712 13.5688 14.7085 13.5028 14.733C13.4426 14.7545 13.3789 14.7647 13.315 14.7631ZM7.44719 10.8662L13.0596 13.5282L17.4357 3.68387L7.44719 10.8662Z" fill="#333333"/>
<path d="M26.2736 13.1241C26.1901 13.1245 26.1077 13.1048 26.0334 13.0666C25.9592 13.0284 25.8952 12.9729 25.8469 12.9048L18.28 2.43551C18.2064 2.32209 18.1792 2.1847 18.2039 2.05176C18.2287 1.91882 18.3036 1.80048 18.4132 1.7212C18.5228 1.64192 18.6586 1.60777 18.7926 1.6258C18.9266 1.64383 19.0486 1.71267 19.1333 1.81808L26.7002 12.2889C26.7568 12.3675 26.7907 12.4603 26.798 12.5569C26.8053 12.6536 26.7859 12.7504 26.7418 12.8367C26.6977 12.923 26.6307 12.9955 26.5481 13.0462C26.4655 13.0969 26.3705 13.1239 26.2736 13.1241Z" fill="#333333"/>
<path d="M45.1931 26.5255H33.839C33.7175 26.5252 33.5998 26.4833 33.5055 26.4068C33.477 26.3838 33.4513 26.3576 33.4289 26.3287C33.4083 26.3043 33.3906 26.2776 33.3763 26.2491L25.8154 12.8564C25.7668 12.7715 25.7429 12.6748 25.7463 12.5771C25.7497 12.4794 25.7802 12.3846 25.8345 12.3033C25.8888 12.222 25.9647 12.1574 26.0537 12.1169C26.1427 12.0763 26.2412 12.0614 26.3382 12.0737L39.2862 13.7127H39.3117C39.4257 13.7283 39.5313 13.7812 39.6122 13.8629C39.6322 13.8843 39.6503 13.9074 39.6663 13.932C39.6797 13.9503 39.6913 13.97 39.7008 13.9906L44.792 24.0227L45.6092 10.9125C45.6174 10.7898 45.6682 10.6739 45.7529 10.5847C45.8375 10.4956 45.9506 10.4388 46.0726 10.4241C46.1947 10.4095 46.318 10.438 46.4213 10.5047C46.5246 10.5714 46.6013 10.672 46.6383 10.7893L51.3223 25.8435C51.3468 25.9222 51.3525 26.0057 51.3387 26.0871C51.325 26.1685 51.2923 26.2455 51.2433 26.3119C51.1943 26.3783 51.1304 26.4322 51.0567 26.4693C50.983 26.5064 50.9016 26.5257 50.8191 26.5255H45.1931ZM45.7534 25.4739H50.095L46.4775 13.8524L45.7534 25.4739ZM34.6592 25.4739H44.3353L39.2471 15.4478L34.6592 25.4739ZM27.247 13.2515L33.7894 24.8399L38.4464 14.6681L27.247 13.2515Z" fill="#333333"/>
<path d="M39.2231 14.7632C39.161 14.7634 39.0993 14.7522 39.0413 14.7301C38.9751 14.706 38.9143 14.6689 38.8627 14.6209C38.8111 14.5729 38.7696 14.515 38.7409 14.4507L33.3583 2.33495C33.3119 2.22927 33.3014 2.11129 33.3285 1.99911C33.3557 1.88693 33.4188 1.78675 33.5084 1.71392C33.5979 1.6411 33.7089 1.59967 33.8242 1.59597C33.9396 1.59228 34.0529 1.62653 34.1469 1.69348L46.4369 10.5313C46.5103 10.5852 46.5685 10.6571 46.6059 10.74C46.6433 10.823 46.6587 10.9142 46.6505 11.0048C46.6424 11.0955 46.6109 11.1825 46.5593 11.2574C46.5077 11.3324 46.4376 11.3927 46.3558 11.4326L39.4544 14.7121C39.3822 14.7465 39.3031 14.764 39.2231 14.7632ZM35.1099 3.68398L39.4845 13.5283L45.0984 10.8663L35.1099 3.68398Z" fill="#333333"/>
<path d="M26.2736 13.1241C26.1766 13.1238 26.0817 13.0969 25.9991 13.0462C25.9165 12.9955 25.8494 12.923 25.8053 12.8367C25.7613 12.7504 25.7418 12.6536 25.7491 12.5569C25.7565 12.4603 25.7903 12.3675 25.8469 12.2888L32.8084 2.64732H18.7067C18.6343 2.6528 18.5615 2.64327 18.493 2.61933C18.4245 2.59539 18.3616 2.55755 18.3084 2.50819C18.2551 2.45883 18.2127 2.39901 18.1836 2.33248C18.1546 2.26594 18.1396 2.19413 18.1396 2.12153C18.1396 2.04894 18.1546 1.97712 18.1836 1.91059C18.2127 1.84405 18.2551 1.78423 18.3084 1.73487C18.3616 1.68551 18.4245 1.64768 18.493 1.62374C18.5615 1.5998 18.6343 1.59026 18.7067 1.59574H33.839C33.9359 1.59569 34.0311 1.62246 34.1138 1.6731C34.1965 1.72374 34.2636 1.79627 34.3077 1.88267C34.3525 1.96891 34.3722 2.06594 34.3648 2.16283C34.3574 2.25972 34.323 2.35261 34.2656 2.431L26.7002 12.9048C26.6517 12.9726 26.5876 13.0279 26.5134 13.0661C26.4392 13.1042 26.357 13.1241 26.2736 13.1241Z" fill="#333333"/>
<path d="M8.05711 41.0438C8.05711 41.3679 7.96099 41.6848 7.7809 41.9543C7.6008 42.2239 7.34483 42.4339 7.04535 42.558C6.74587 42.682 6.41632 42.7145 6.0984 42.6512C5.78047 42.588 5.48843 42.4319 5.25922 42.2027C5.03 41.9735 4.87391 41.6814 4.81067 41.3635C4.74743 41.0456 4.77988 40.716 4.90393 40.4166C5.02798 40.1171 5.23805 39.8611 5.50758 39.681C5.77711 39.5009 6.09399 39.4048 6.41814 39.4048C6.63343 39.4046 6.84664 39.4468 7.04558 39.5291C7.24452 39.6114 7.42528 39.7322 7.57751 39.8844C7.72974 40.0366 7.85046 40.2174 7.93275 40.4163C8.01505 40.6153 8.05731 40.8285 8.05711 41.0438Z" fill="#FBC02D"/>
<path d="M14.9675 37.7625C14.9678 38.0867 14.8719 38.4038 14.6919 38.6736C14.5119 38.9433 14.256 39.1536 13.9564 39.2779C13.6569 39.4021 13.3272 39.4347 13.0092 39.3715C12.6911 39.3083 12.3989 39.1522 12.1696 38.9229C11.9403 38.6936 11.7842 38.4014 11.721 38.0833C11.6578 37.7653 11.6904 37.4356 11.8146 37.1361C11.9389 36.8365 12.1492 36.5806 12.4189 36.4006C12.6887 36.2206 13.0058 36.1247 13.33 36.125C13.7643 36.125 14.1808 36.2975 14.4879 36.6046C14.795 36.9117 14.9675 37.3282 14.9675 37.7625Z" fill="#FBC02D"/>
<path d="M8.99154 26.0001C8.99303 26.3246 8.89817 26.6422 8.71899 26.9127C8.5398 27.1832 8.28435 27.3945 7.985 27.5197C7.68565 27.6449 7.35588 27.6784 7.03746 27.616C6.71904 27.5536 6.4263 27.3981 6.19633 27.1692C5.96637 26.9403 5.80952 26.6483 5.74567 26.3301C5.68182 26.012 5.71383 25.6821 5.83766 25.3822C5.96149 25.0822 6.17155 24.8258 6.44124 24.6454C6.71092 24.465 7.0281 24.3687 7.35258 24.3687C7.78584 24.369 8.20135 24.5408 8.50842 24.8465C8.81548 25.1521 8.98916 25.5669 8.99154 26.0001Z" fill="#FBC02D"/>
<path d="M20.3456 26.0001C20.3471 26.3246 20.2522 26.6422 20.073 26.9127C19.8939 27.1832 19.6384 27.3945 19.3391 27.5197C19.0397 27.6449 18.7099 27.6784 18.3915 27.616C18.0731 27.5536 17.7804 27.3981 17.5504 27.1692C17.3204 26.9403 17.1636 26.6483 17.0997 26.3301C17.0359 26.012 17.0679 25.6821 17.1917 25.3822C17.3156 25.0822 17.5256 24.8258 17.7953 24.6454C18.065 24.465 18.3822 24.3687 18.7066 24.3687C19.1399 24.369 19.5554 24.5408 19.8625 24.8465C20.1695 25.1521 20.3432 25.5669 20.3456 26.0001Z" fill="#FBC02D"/>
<path d="M3.37307 26.0001C3.37456 26.3246 3.2797 26.6422 3.10052 26.9127C2.92133 27.1832 2.66588 27.3945 2.36653 27.5197C2.06719 27.6449 1.73741 27.6784 1.41899 27.616C1.10057 27.5536 0.807828 27.3981 0.577862 27.1692C0.347896 26.9403 0.191052 26.6483 0.127201 26.3301C0.0633497 26.012 0.0953652 25.6821 0.219191 25.3822C0.343017 25.0822 0.55308 24.8258 0.822768 24.6454C1.09245 24.465 1.40963 24.3687 1.73411 24.3687C2.16737 24.369 2.58288 24.5408 2.88995 24.8465C3.19701 25.1521 3.37069 25.5669 3.37307 26.0001Z" fill="#FBC02D"/>
<path d="M20.3456 49.8782C20.3456 50.2024 20.2495 50.5193 20.0694 50.7888C19.8893 51.0583 19.6333 51.2684 19.3339 51.3924C19.0344 51.5165 18.7048 51.549 18.3869 51.4857C18.069 51.4225 17.7769 51.2664 17.5477 51.0372C17.3185 50.8079 17.1624 50.5159 17.0992 50.198C17.0359 49.8801 17.0684 49.5505 17.1924 49.251C17.3165 48.9515 17.5266 48.6956 17.7961 48.5155C18.0656 48.3354 18.3825 48.2393 18.7067 48.2393C19.1412 48.2397 19.5579 48.4125 19.8651 48.7197C20.1724 49.027 20.3452 49.4437 20.3456 49.8782Z" fill="#FBC02D"/>
<path d="M24.6346 39.4017C24.6346 39.7258 24.7307 40.0427 24.9108 40.3122C25.0909 40.5817 25.3469 40.7918 25.6463 40.9159C25.9458 41.0399 26.2754 41.0724 26.5933 41.0091C26.9112 40.9459 27.2033 40.7898 27.4325 40.5606C27.6617 40.3314 27.8178 40.0393 27.881 39.7214C27.9443 39.4035 27.9118 39.0739 27.7878 38.7745C27.6637 38.475 27.4536 38.219 27.1841 38.0389C26.9146 37.8588 26.5977 37.7627 26.2735 37.7627C26.0583 37.7625 25.845 37.8048 25.6461 37.8871C25.4472 37.9693 25.2664 38.0901 25.1142 38.2423C24.962 38.3945 24.8412 38.5753 24.7589 38.7742C24.6766 38.9732 24.6344 39.1864 24.6346 39.4017Z" fill="#FBC02D"/>
<path d="M44.4915 41.0438C44.4915 41.3679 44.5876 41.6848 44.7677 41.9543C44.9478 42.2239 45.2038 42.4339 45.5033 42.558C45.8028 42.682 46.1323 42.7145 46.4502 42.6512C46.7682 42.588 47.0602 42.4319 47.2894 42.2027C47.5186 41.9735 47.6747 41.6814 47.738 41.3635C47.8012 41.0456 47.7688 40.716 47.6447 40.4166C47.5207 40.1171 47.3106 39.8611 47.0411 39.681C46.7715 39.5009 46.4547 39.4048 46.1305 39.4048C45.9152 39.4046 45.702 39.4468 45.5031 39.5291C45.3041 39.6114 45.1234 39.7322 44.9711 39.8844C44.8189 40.0366 44.6982 40.2174 44.6159 40.4163C44.5336 40.6153 44.4913 40.8285 44.4915 41.0438Z" fill="#FBC02D"/>
<path d="M37.5856 37.7625C37.5853 38.0867 37.6812 38.4038 37.8612 38.6736C38.0411 38.9433 38.2971 39.1536 38.5966 39.2779C38.8962 39.4021 39.2259 39.4347 39.5439 39.3715C39.862 39.3083 40.1542 39.1522 40.3835 38.9229C40.6128 38.6936 40.7689 38.4014 40.8321 38.0833C40.8953 37.7653 40.8627 37.4356 40.7385 37.1361C40.6142 36.8365 40.4039 36.5806 40.1342 36.4006C39.8644 36.2206 39.5473 36.1247 39.223 36.125C38.7888 36.125 38.3723 36.2975 38.0652 36.6046C37.7581 36.9117 37.5856 37.3282 37.5856 37.7625Z" fill="#FBC02D"/>
<path d="M43.5541 26.0001C43.5526 26.3246 43.6475 26.6422 43.8266 26.9127C44.0058 27.1832 44.2613 27.3945 44.5606 27.5197C44.86 27.6449 45.1898 27.6784 45.5082 27.616C45.8266 27.5536 46.1193 27.3981 46.3493 27.1692C46.5793 26.9403 46.7361 26.6483 46.8 26.3301C46.8638 26.012 46.8318 25.6821 46.708 25.3822C46.5841 25.0822 46.3741 24.8258 46.1044 24.6454C45.8347 24.465 45.5175 24.3687 45.1931 24.3687C44.7598 24.369 44.3443 24.5408 44.0372 24.8465C43.7302 25.1521 43.5565 25.5669 43.5541 26.0001Z" fill="#FBC02D"/>
<path d="M32.2 26.0001C32.1985 26.3246 32.2933 26.6422 32.4725 26.9127C32.6517 27.1832 32.9072 27.3945 33.2065 27.5197C33.5059 27.6449 33.8356 27.6784 34.1541 27.616C34.4725 27.5536 34.7652 27.3981 34.9952 27.1692C35.2252 26.9403 35.382 26.6483 35.4458 26.3301C35.5097 26.012 35.4777 25.6821 35.3539 25.3822C35.23 25.0822 35.02 24.8258 34.7503 24.6454C34.4806 24.465 34.1634 24.3687 33.8389 24.3687C33.4057 24.369 32.9902 24.5408 32.6831 24.8465C32.376 25.1521 32.2023 25.5669 32.2 26.0001Z" fill="#FBC02D"/>
<path d="M49.1726 26.0001C49.1711 26.3246 49.2659 26.6422 49.4451 26.9127C49.6243 27.1832 49.8798 27.3945 50.1791 27.5197C50.4785 27.6449 50.8082 27.6784 51.1267 27.616C51.4451 27.5536 51.7378 27.3981 51.9678 27.1692C52.1977 26.9403 52.3546 26.6483 52.4184 26.3301C52.4823 26.012 52.4503 25.6821 52.3264 25.3822C52.2026 25.0822 51.9926 24.8258 51.7229 24.6454C51.4532 24.465 51.136 24.3687 50.8115 24.3687C50.3783 24.369 49.9628 24.5408 49.6557 24.8465C49.3486 25.1521 49.1749 25.5669 49.1726 26.0001Z" fill="#FBC02D"/>
<path d="M32.2 49.8782C32.2 50.2024 32.2961 50.5193 32.4762 50.7888C32.6563 51.0583 32.9122 51.2684 33.2117 51.3924C33.5112 51.5165 33.8407 51.549 34.1587 51.4857C34.4766 51.4225 34.7686 51.2664 34.9978 51.0372C35.2271 50.8079 35.3832 50.5159 35.4464 50.198C35.5096 49.8801 35.4772 49.5505 35.3531 49.251C35.2291 48.9515 35.019 48.6956 34.7495 48.5155C34.48 48.3354 34.1631 48.2393 33.8389 48.2393C33.4044 48.2397 32.9877 48.4125 32.6804 48.7197C32.3732 49.027 32.2003 49.4437 32.2 49.8782Z" fill="#FBC02D"/>
<path d="M8.05711 10.9593C8.05741 10.6351 7.96154 10.3181 7.78162 10.0483C7.60171 9.77862 7.34585 9.56832 7.04639 9.44404C6.74693 9.31976 6.41735 9.28709 6.09932 9.35016C5.78129 9.41323 5.48911 9.56921 5.25975 9.79836C5.03039 10.0275 4.87414 10.3195 4.81078 10.6375C4.74742 10.9555 4.77979 11.2851 4.90379 11.5847C5.0278 11.8842 5.23787 12.1403 5.50742 12.3205C5.77698 12.5006 6.09392 12.5968 6.41814 12.5968C6.6333 12.597 6.84639 12.5548 7.04523 12.4726C7.24407 12.3904 7.42476 12.2698 7.57698 12.1177C7.72919 11.9656 7.84994 11.7851 7.93232 11.5863C8.01471 11.3875 8.05711 11.1745 8.05711 10.9593Z" fill="#FBC02D"/>
<path d="M14.9675 14.2356C14.9675 13.9114 14.8714 13.5945 14.6912 13.3249C14.511 13.0554 14.255 12.8453 13.9554 12.7213C13.6558 12.5973 13.3262 12.5649 13.0082 12.6283C12.6903 12.6916 12.3982 12.8479 12.1691 13.0773C11.9399 13.3066 11.784 13.5988 11.7209 13.9168C11.6578 14.2349 11.6905 14.5644 11.8148 14.8639C11.939 15.1634 12.1494 15.4192 12.4191 15.5991C12.6888 15.779 13.0058 15.8749 13.33 15.8746C13.7645 15.8742 14.181 15.7014 14.488 15.394C14.795 15.0867 14.9675 14.6701 14.9675 14.2356Z" fill="#FBC02D"/>
<path d="M20.3456 2.12139C20.3456 1.79723 20.2495 1.48036 20.0694 1.21083C19.8893 0.941302 19.6333 0.731231 19.3339 0.607182C19.0344 0.483132 18.7048 0.450675 18.3869 0.513915C18.069 0.577155 17.7769 0.733252 17.5477 0.962465C17.3185 1.19168 17.1624 1.48372 17.0992 1.80164C17.0359 2.11957 17.0684 2.44912 17.1924 2.7486C17.3165 3.04808 17.5266 3.30405 17.7961 3.48414C18.0656 3.66424 18.3825 3.76036 18.7067 3.76036C19.1413 3.76036 19.5582 3.58768 19.8656 3.28032C20.1729 2.97295 20.3456 2.55607 20.3456 2.12139Z" fill="#FBC02D"/>
<path d="M24.6346 12.5965C24.6346 12.2723 24.7307 11.9555 24.9108 11.6859C25.0909 11.4164 25.3469 11.2063 25.6463 11.0823C25.9458 10.9582 26.2754 10.9258 26.5933 10.989C26.9112 11.0523 27.2033 11.2083 27.4325 11.4376C27.6617 11.6668 27.8178 11.9588 27.881 12.2767C27.9443 12.5947 27.9118 12.9242 27.7878 13.2237C27.6637 13.5232 27.4536 13.7791 27.1841 13.9592C26.9146 14.1393 26.5977 14.2355 26.2735 14.2355C26.0583 14.2357 25.845 14.1934 25.6461 14.1111C25.4472 14.0288 25.2664 13.9081 25.1142 13.7559C24.962 13.6036 24.8412 13.4229 24.7589 13.2239C24.6766 13.025 24.6344 12.8118 24.6346 12.5965Z" fill="#FBC02D"/>
<path d="M44.4915 10.9593C44.4912 10.6351 44.5871 10.3181 44.767 10.0483C44.9469 9.77862 45.2028 9.56832 45.5022 9.44404C45.8017 9.31976 46.1313 9.28709 46.4493 9.35016C46.7674 9.41323 47.0595 9.56921 47.2889 9.79836C47.5183 10.0275 47.6745 10.3195 47.7379 10.6375C47.8012 10.9555 47.7689 11.2851 47.6449 11.5847C47.5209 11.8842 47.3108 12.1403 47.0412 12.3205C46.7717 12.5006 46.4547 12.5968 46.1305 12.5968C45.9153 12.597 45.7022 12.5548 45.5034 12.4726C45.3046 12.3904 45.1239 12.2698 44.9717 12.1177C44.8194 11.9656 44.6987 11.7851 44.6163 11.5863C44.5339 11.3875 44.4915 11.1745 44.4915 10.9593Z" fill="#FBC02D"/>
<path d="M37.5856 14.2356C37.5856 13.9114 37.6817 13.5945 37.8619 13.3249C38.0421 13.0554 38.2981 12.8453 38.5977 12.7213C38.8972 12.5973 39.2269 12.5649 39.5448 12.6283C39.8628 12.6916 40.1548 12.8479 40.384 13.0773C40.6131 13.3066 40.7691 13.5988 40.8322 13.9168C40.8953 14.2349 40.8626 14.5644 40.7383 14.8639C40.614 15.1634 40.4037 15.4192 40.134 15.5991C39.8643 15.779 39.5473 15.8749 39.223 15.8746C38.7886 15.8742 38.3721 15.7014 38.0651 15.394C37.758 15.0867 37.5856 14.6701 37.5856 14.2356Z" fill="#FBC02D"/>
<path d="M32.2 2.12139C32.2 1.79723 32.2961 1.48036 32.4762 1.21083C32.6563 0.941302 32.9122 0.731231 33.2117 0.607182C33.5112 0.483132 33.8407 0.450675 34.1587 0.513915C34.4766 0.577155 34.7686 0.733252 34.9978 0.962465C35.2271 1.19168 35.3832 1.48372 35.4464 1.80164C35.5096 2.11957 35.4772 2.44912 35.3531 2.7486C35.2291 3.04808 35.019 3.30405 34.7495 3.48414C34.48 3.66424 34.1631 3.76036 33.8389 3.76036C33.4042 3.76036 32.9874 3.58768 32.68 3.28032C32.3726 2.97295 32.2 2.55607 32.2 2.12139Z" fill="#FBC02D"/>
</g>
<defs>
<clipPath id="clip0_1766_8839">
<rect width="166" height="51.0769" fill="white" transform="translate(0 0.461426)"/>
</clipPath>
</defs>
</svg>
