<svg width="21" height="21" viewBox="0 0 21 21" fill="none" xmlns="http://www.w3.org/2000/svg">
<g clip-path="url(#clip0_1611_196)">
<path d="M9.85938 0.5H11.1094C11.1615 0.510937 11.2094 0.523437 11.2594 0.532291C11.8844 0.640104 12.5312 0.680208 13.1344 0.865104C17.0736 2.0783 19.4654 4.71007 20.3099 8.76042C20.3844 9.12135 20.4141 9.48958 20.4635 9.85417V11.1042C20.4391 11.2901 20.4115 11.4755 20.3911 11.662C20.1604 13.6089 19.4396 15.3599 18.1635 16.8432C15.7495 19.65 12.6766 20.8391 9.00521 20.3396C6.45833 19.9932 4.35625 18.7708 2.7474 16.774C0.742714 14.2875 0.0989645 11.4453 0.739589 8.32187C1.53698 4.4474 4.84323 1.29062 8.74479 0.65625C9.11406 0.59375 9.4875 0.552083 9.85938 0.5ZM11.2656 18.8542C15.4964 18.5156 18.6344 14.9198 18.8458 11.2604C18.6318 11.2604 18.4182 11.2604 18.2052 11.2604C17.7234 11.2573 17.3818 10.9385 17.3776 10.4906C17.3734 10.0307 17.7151 9.70469 18.2052 9.70156C18.4234 9.70156 18.6422 9.70156 18.862 9.70156C18.4776 5.27083 14.713 2.28958 11.2651 2.12396C11.2651 2.35781 11.2698 2.59271 11.2651 2.82396C11.2644 2.92516 11.2438 3.02523 11.2044 3.11844C11.1649 3.21164 11.1075 3.29616 11.0354 3.36714C10.9632 3.43811 10.8778 3.49416 10.784 3.53206C10.6901 3.56997 10.5897 3.58898 10.4885 3.58802C10.2851 3.59137 10.0886 3.51392 9.94217 3.37265C9.79572 3.23138 9.71126 3.03781 9.70729 2.83437C9.7 2.59115 9.70729 2.34792 9.70729 2.10521C5.48854 2.47812 2.38646 5.95208 2.11615 9.70312C2.33646 9.70312 2.55625 9.70312 2.77553 9.70312C3.25365 9.70729 3.59375 10.0318 3.59375 10.4844C3.59375 10.937 3.25365 11.2599 2.77605 11.2656C2.55678 11.2656 2.3375 11.2656 2.11667 11.2656C2.41511 15.3401 5.88021 18.5901 9.70312 18.8453V18.2828C9.70312 17.7187 10.0036 17.3708 10.4875 17.3729C10.9714 17.375 11.2625 17.7234 11.2625 18.2927C11.2632 18.4795 11.2634 18.6667 11.263 18.8542H11.2656Z" fill="#232526"/>
<path d="M9.70313 8.17506C9.70313 7.43513 9.70313 6.69485 9.70313 5.95423C9.70313 5.44902 10.0286 5.09746 10.4885 5.1011C10.9484 5.10475 11.2615 5.45214 11.262 5.94746C11.262 7.29156 11.2611 8.63583 11.2594 9.98027C11.2571 10.0373 11.2673 10.0941 11.2893 10.1468C11.3114 10.1994 11.3447 10.2466 11.387 10.285C12.2759 11.1679 13.163 12.0534 14.0484 12.9412C14.2542 13.1454 14.3698 13.3803 14.3177 13.6771C14.2958 13.8124 14.2385 13.9395 14.1515 14.0453C14.0645 14.1512 13.951 14.2321 13.8225 14.2797C13.6941 14.3274 13.5553 14.3401 13.4203 14.3166C13.2853 14.2931 13.159 14.2342 13.0542 14.1459C13.0043 14.1034 12.9567 14.0584 12.9115 14.011C11.9458 13.0469 10.9844 12.0798 10.0151 11.1204C9.91082 11.0232 9.82869 10.9047 9.77432 10.773C9.71994 10.6412 9.6946 10.4993 9.7 10.3568C9.71042 9.62975 9.70313 8.90267 9.70313 8.17506Z" fill="#232526"/>
</g>
<defs>
<clipPath id="clip0_1611_196">
<rect width="20" height="20" fill="white" transform="translate(0.5 0.5)"/>
</clipPath>
</defs>
</svg>
