<svg width="19" height="18" viewBox="0 0 19 18" fill="none" xmlns="http://www.w3.org/2000/svg">
<g clip-path="url(#clip0_1678_3617)">
<path d="M18.7241 17.1677C18.6614 17.2978 18.6142 17.4389 18.5322 17.5552C18.3156 17.8625 18.0055 17.9848 17.6332 17.9848C13.129 17.9848 8.62536 17.994 4.1217 17.9779C2.38124 17.9715 1.11986 17.1462 0.358643 15.5789C0.107651 15.0622 0.00184719 14.5053 0.00184719 13.93C-0.000290211 9.65215 -0.000290211 5.37398 0.00184719 1.09551C0.00184719 0.55001 0.371915 0.111231 0.862907 0.0526047C1.3965 -0.0115175 1.85314 0.284819 1.98596 0.797338C2.01627 0.94013 2.02873 1.08613 2.02306 1.23199C2.0249 5.41887 2.0249 9.60558 2.02306 13.7921C2.02306 14.6926 2.40322 15.3622 3.21803 15.7653C3.52399 15.9164 3.8565 15.954 4.19589 15.954C8.64474 15.954 13.0936 15.9532 17.5425 15.9517C17.935 15.9517 18.2844 16.0401 18.5208 16.3754C18.6096 16.5018 18.6582 16.6579 18.7232 16.8004L18.7241 17.1677Z" fill="#232526"/>
<path d="M8.98305 7.63183C8.75084 7.96297 8.52505 8.28174 8.30474 8.60098C7.76108 9.37961 7.22107 10.1619 6.67237 10.9369C6.4342 11.2726 6.12275 11.4654 5.68717 11.3701C5.2516 11.2749 4.98457 11.0193 4.88244 10.5915C4.80503 10.2682 4.9003 9.9819 5.08854 9.71396C5.67664 8.87671 6.25878 8.03534 6.84366 7.19488C7.19176 6.69534 7.54 6.19564 7.8884 5.69579C8.28321 5.13106 8.88962 5.028 9.44107 5.44068C10.4652 6.20678 11.4881 6.9758 12.5098 7.7477C12.5725 7.79351 12.6362 7.8393 12.7086 7.89335C12.7544 7.83014 12.7947 7.77702 12.8322 7.72297C13.5568 6.6848 14.2815 5.64572 15.0064 4.60572C15.4571 3.96175 16.3122 3.94572 16.7226 4.57549C16.9484 4.92221 16.9677 5.29457 16.7432 5.64357C16.4606 6.08373 16.1478 6.50602 15.8478 6.93427C15.1709 7.8958 14.4933 8.8564 13.8151 9.8161C13.4029 10.3992 12.8052 10.4944 12.235 10.0662C11.202 9.2909 10.1699 8.51473 9.13879 7.73763C9.08932 7.70557 9.03985 7.67213 8.98305 7.63183Z" fill="#232526"/>
</g>
<defs>
<clipPath id="clip0_1678_3617">
<rect width="18.7328" height="18" fill="white"/>
</clipPath>
</defs>
</svg>
