<svg width="20" height="20" viewBox="0 0 20 20" fill="none" xmlns="http://www.w3.org/2000/svg">
<g clip-path="url(#clip0_1611_149)">
<path d="M5.46 2.26539C5.77222 2.26539 6.08389 2.26539 6.39556 2.26539C6.53778 2.26952 6.67919 2.24252 6.80989 2.18629C6.94059 2.13005 7.05743 2.04594 7.15222 1.93983C7.51778 1.55094 7.895 1.17317 8.26722 0.790944C9.24555 -0.212389 10.6994 -0.2285 11.6983 0.755389C12.0589 1.11039 12.4267 1.45872 12.7683 1.8315C13.0628 2.15317 13.4028 2.29039 13.8378 2.27095C14.3378 2.24761 14.8378 2.26094 15.3344 2.2665C16.7444 2.28206 17.72 3.25595 17.7367 4.6665C17.7433 5.20706 17.745 5.74817 17.7367 6.28817C17.7277 6.4507 17.7553 6.61316 17.8174 6.76362C17.8796 6.91408 17.9746 7.04871 18.0956 7.15761C18.4844 7.52261 18.855 7.90761 19.23 8.28706C20.225 9.29206 20.2261 10.7182 19.2333 11.7198C18.8578 12.0993 18.4839 12.4804 18.0994 12.8504C17.9794 12.9604 17.8848 13.0952 17.8219 13.2454C17.7591 13.3956 17.7296 13.5577 17.7356 13.7204C17.7428 14.351 17.7572 14.9832 17.7167 15.6093C17.6819 16.1726 17.4374 16.7024 17.0315 17.0945C16.6255 17.4866 16.0875 17.7124 15.5233 17.7276C14.935 17.7493 14.3456 17.7421 13.7567 17.7348C13.3894 17.7304 13.09 17.836 12.8317 18.1148C12.4844 18.4915 12.1094 18.8443 11.7467 19.2054C10.7139 20.2282 9.27389 20.2248 8.24667 19.1982C7.87944 18.8304 7.50722 18.4671 7.14556 18.0937C7.03428 17.9755 6.89894 17.8825 6.74868 17.8209C6.59841 17.7594 6.4367 17.7308 6.27444 17.7371C5.67889 17.7437 5.08222 17.7515 4.48667 17.7304C3.90446 17.7155 3.35023 17.4775 2.93852 17.0655C2.5268 16.6536 2.28907 16.0993 2.27444 15.5171C2.25333 14.9287 2.26111 14.3387 2.26778 13.7498C2.27222 13.3898 2.16278 13.0948 1.89667 12.8404C1.51111 12.4721 1.14611 12.0815 0.776111 11.6976C-0.193333 10.6926 -0.184444 9.28484 0.796111 8.29428C1.17611 7.91039 1.55556 7.52484 1.94389 7.14873C2.06102 7.04046 2.1532 6.90801 2.21402 6.76056C2.27484 6.61311 2.30285 6.4542 2.29611 6.29484C2.28556 5.7615 2.29056 5.22761 2.29611 4.69372C2.30556 3.24928 3.28889 2.27372 4.73389 2.26539C4.975 2.26428 5.21889 2.26539 5.46 2.26539ZM14.5522 16.4565V16.4404C14.8367 16.4404 15.1206 16.4404 15.405 16.4404C16.0589 16.4371 16.465 16.031 16.4672 15.3748C16.4672 14.8132 16.4672 14.2521 16.4672 13.6904C16.4672 13.061 16.6694 12.5065 17.1111 12.0515C17.5211 11.6287 17.9406 11.2148 18.3561 10.7971C18.8633 10.2859 18.8644 9.7215 18.3561 9.21095C17.9713 8.82354 17.5848 8.4365 17.1967 8.04984C16.8078 7.66095 16.5339 7.20039 16.5011 6.64706C16.4622 5.98428 16.4744 5.31817 16.4683 4.65317C16.4622 3.97095 16.0667 3.57206 15.3811 3.56928C14.8544 3.56928 14.3256 3.56261 13.8011 3.56928C13.4538 3.58137 13.108 3.51867 12.7871 3.38544C12.4662 3.2522 12.1777 3.05154 11.9411 2.79706C11.5711 2.41261 11.19 2.03872 10.8106 1.66372C10.3189 1.17761 9.745 1.17872 9.255 1.66372C8.83 2.08372 8.41667 2.51206 7.98667 2.92428C7.60778 3.28983 7.14389 3.51983 6.61389 3.54483C5.96389 3.57483 5.31167 3.56206 4.66056 3.56928C4.00944 3.5765 3.605 3.97539 3.59778 4.63483C3.59444 5.18261 3.59444 5.73021 3.59778 6.27761C3.6059 6.61131 3.54399 6.94301 3.41606 7.25132C3.28812 7.55963 3.097 7.8377 2.855 8.06761C2.46611 8.44539 2.08889 8.83095 1.70722 9.21373C1.20111 9.7215 1.20111 10.2887 1.70722 10.7982C2.12722 11.2209 2.555 11.6365 2.96611 12.0676C3.32556 12.4454 3.54889 12.9009 3.57278 13.4248C3.60278 14.0748 3.59056 14.7271 3.59722 15.3782C3.60389 16.0293 4.00778 16.4393 4.66278 16.4415C5.22444 16.4415 5.78556 16.4415 6.34722 16.4415C6.98444 16.4415 7.54333 16.6498 8.00167 17.0987C8.42278 17.511 8.835 17.9321 9.255 18.3448C9.74611 18.8326 10.3183 18.8332 10.8106 18.3448C11.1939 17.9641 11.5757 17.5821 11.9561 17.1987C12.3706 16.7804 12.8611 16.5076 13.4517 16.4626C13.8167 16.4348 14.185 16.4565 14.5522 16.4565Z" fill="#232526"/>
<path d="M14.39 6.36164C14.2917 6.52164 14.2178 6.70442 14.0911 6.83664C13.6367 7.31275 13.1633 7.7722 12.6989 8.23775C10.7633 10.1733 8.82815 12.1094 6.89333 14.0461C6.68277 14.2566 6.45222 14.3794 6.14888 14.2761C6.04443 14.2427 5.95003 14.1836 5.87439 14.1042C5.79875 14.0249 5.74429 13.9277 5.71601 13.8218C5.68774 13.7158 5.68657 13.6045 5.7126 13.4979C5.73864 13.3914 5.79104 13.2932 5.86499 13.2122C5.89666 13.1755 5.93166 13.1416 5.96555 13.1072C8.35667 10.7157 10.7476 8.32386 13.1383 5.93164C13.3561 5.71331 13.5933 5.59164 13.9022 5.70942C14.1633 5.80498 14.3422 6.06387 14.39 6.36164Z" fill="#232526"/>
<path d="M14.7689 12.6847C14.7612 13.2256 14.5412 13.7418 14.1563 14.122C13.7714 14.5022 13.2526 14.7158 12.7116 14.7169C12.1706 14.718 11.6509 14.5065 11.2645 14.1278C10.8781 13.7492 10.656 13.2339 10.6461 12.693C10.6406 11.568 11.5794 10.6236 12.7061 10.6191C13.2528 10.6219 13.7763 10.8405 14.1626 11.2274C14.549 11.6142 14.7669 12.138 14.7689 12.6847ZM13.4717 12.6847C13.4717 12.3025 13.13 11.9847 12.72 11.9847C12.3483 11.9847 12.0122 12.318 12.0133 12.6847C12.0133 13.0664 12.3622 13.4108 12.7478 13.4102C12.9396 13.4098 13.1235 13.3334 13.2592 13.1977C13.3948 13.0621 13.4712 12.8782 13.4717 12.6864V12.6847Z" fill="#232526"/>
<path d="M7.33722 5.20122C7.87989 5.20804 8.39828 5.42724 8.78121 5.81183C9.16413 6.19642 9.38109 6.71575 9.38555 7.25844C9.38555 8.37289 8.42833 9.32567 7.31278 9.32289C6.76634 9.31776 6.24412 9.0967 5.86006 8.70796C5.476 8.31922 5.26129 7.79435 5.26278 7.24789C5.26453 6.97727 5.31958 6.70965 5.42479 6.46031C5.53 6.21098 5.6833 5.98481 5.87595 5.79475C6.0686 5.60468 6.2968 5.45444 6.54754 5.3526C6.79827 5.25076 7.06661 5.19932 7.33722 5.20122ZM6.59389 7.28511C6.5929 7.47703 6.66661 7.6618 6.79943 7.80033C6.93226 7.93885 7.11377 8.02027 7.30556 8.02733C7.50063 8.0261 7.68758 7.94909 7.82691 7.81256C7.96624 7.67602 8.04704 7.49067 8.05222 7.29567C8.05222 6.91344 7.70778 6.56789 7.32278 6.56789C7.2278 6.56701 7.13357 6.58488 7.0455 6.62047C6.95743 6.65605 6.87725 6.70867 6.80955 6.77529C6.74184 6.84191 6.68794 6.92124 6.65094 7.00872C6.61393 7.0962 6.59455 7.19013 6.59389 7.28511Z" fill="#232526"/>
</g>
<defs>
<clipPath id="clip0_1611_149">
<rect width="20" height="19.9444" fill="white" transform="translate(0 0.027832)"/>
</clipPath>
</defs>
</svg>
