<svg width="109" height="25" viewBox="0 0 109 25" fill="none" xmlns="http://www.w3.org/2000/svg">
<g clip-path="url(#clip0_1824_4785)">
<path d="M45.9954 24.5H2.74168C2.38161 24.5001 2.02504 24.4279 1.69235 24.2875C1.35966 24.147 1.05737 23.9411 0.802757 23.6815C0.548144 23.4219 0.346198 23.1137 0.208457 22.7745C0.0707165 22.4353 -0.000118356 22.0717 1.48445e-07 21.7046V3.2954C-0.000118356 2.92827 0.0707165 2.56471 0.208457 2.22551C0.346198 1.8863 0.548144 1.57809 0.802757 1.31849C1.05737 1.05888 1.35966 0.852981 1.69235 0.712541C2.02504 0.572102 2.38161 0.499879 2.74168 0.5H45.9954V24.5Z" fill="white"/>
<path d="M14.0511 15.0562C14.0511 15.9666 13.9249 16.693 13.6814 17.2355C13.4768 17.7262 13.1466 18.1518 12.7254 18.4677C12.3387 18.7507 11.8951 18.9424 11.4267 19.0286C10.963 19.1192 10.4919 19.1654 10.0198 19.1666H5.4473V5.93439H10.4797C11.1291 5.93439 11.6522 6.04474 12.067 6.26543C12.4597 6.46631 12.7975 6.76328 13.0501 7.12979C13.2916 7.48736 13.4603 7.89073 13.5461 8.316C13.6334 8.73602 13.6727 9.16492 13.6633 9.59416C13.6453 10.7988 13.3477 11.6172 12.7705 12.0493C13.1493 12.2332 13.4559 12.5643 13.6994 13.0424C13.9429 13.5206 14.0511 14.2011 14.0511 15.0562ZM11.2373 9.64014C11.2373 9.22635 11.1922 8.9137 11.093 8.7114C10.9938 8.50911 10.8044 8.40796 10.5158 8.40796H7.9094V11.047H10.2813C10.6511 11.047 10.8946 10.9183 11.0299 10.67C11.1797 10.3489 11.2508 9.99548 11.2373 9.64014ZM11.58 15.0746C11.5899 14.7806 11.5596 14.4866 11.4898 14.2011C11.4476 14.0191 11.371 13.8474 11.2644 13.6953C11.1891 13.5849 11.0819 13.5013 10.9577 13.4562C10.8531 13.4201 10.7435 13.4014 10.633 13.4011H7.9094V16.5735H10.4256C10.8585 16.5735 11.1652 16.4539 11.3275 16.224C11.4898 15.9942 11.58 15.608 11.58 15.0746ZM23.9176 19.1666H15.6745V5.93439H23.7733V8.49991H18.1276V10.9367H23.3224V13.5022H18.1276V16.5827H23.9176V19.1666ZM33.4594 15.2585C33.4594 18.0478 31.9893 19.4424 29.0492 19.4424C27.6243 19.4424 26.533 19.0286 25.7845 18.2103C25.0359 17.3919 24.6661 16.1137 24.6661 14.3942H27.0561C27.0721 14.7463 27.1143 15.0968 27.1824 15.4424C27.2369 15.7374 27.3539 16.0167 27.5251 16.2608C27.6875 16.4906 27.9048 16.6741 28.1564 16.7942C28.4718 16.9339 28.8138 16.9999 29.1575 16.9873C29.8248 16.9873 30.3028 16.8585 30.6004 16.6103C30.8981 16.362 31.0514 15.8654 31.0514 15.1482C31.0514 14.7712 30.9883 14.4953 30.871 14.3298C30.7254 14.1463 30.5314 14.0091 30.3119 13.9344C29.9724 13.8132 29.6219 13.727 29.2657 13.6769C28.7943 13.5999 28.3275 13.4955 27.8678 13.3643C27.4831 13.2531 27.1064 13.1148 26.7404 12.9505C26.3968 12.7976 26.087 12.5756 25.8296 12.2976C25.5511 11.9795 25.3448 11.6027 25.2253 11.1942C25.081 10.7436 25.0089 10.1459 25.0089 9.41025C24.9978 8.9333 25.0648 8.4578 25.2073 8.00336C25.3207 7.63691 25.4978 7.29427 25.7304 6.99186C25.9396 6.72534 26.1929 6.49816 26.4789 6.3206C26.7536 6.15299 27.0474 6.0202 27.3537 5.9252C27.6444 5.83313 27.9436 5.77151 28.2466 5.74129C28.5442 5.7137 28.8238 5.69531 29.0673 5.69531C29.915 5.69531 30.6095 5.83324 31.1326 6.09991C31.6237 6.33875 32.0485 6.69913 32.3681 7.14819C32.6664 7.58338 32.8694 8.07887 32.9634 8.60106C33.0626 9.12845 33.1139 9.66405 33.1167 10.2011H30.7718C30.7357 9.98037 30.7087 9.73209 30.6816 9.46543C30.6676 9.22365 30.6095 8.98665 30.5103 8.76658C30.4151 8.57265 30.2682 8.41008 30.0864 8.29761C29.879 8.15968 29.5543 8.08612 29.1124 8.08612C28.824 8.07823 28.536 8.10915 28.2556 8.17807C28.0621 8.22603 27.8827 8.32064 27.7325 8.45393C27.6009 8.58346 27.5099 8.74985 27.471 8.93209C27.4208 9.16147 27.3966 9.39595 27.3988 9.63094C27.3988 9.95278 27.471 10.1827 27.6062 10.3206C27.7415 10.4585 28.0031 10.5781 28.3819 10.6792C28.7787 10.7896 29.1755 10.8815 29.5813 10.9551C29.9872 11.0286 30.375 11.1206 30.7538 11.2217C31.1199 11.3179 31.474 11.4568 31.809 11.6355C32.1386 11.81 32.4301 12.0509 32.6657 12.3436C32.9322 12.6865 33.1285 13.0805 33.2429 13.5022C33.3962 13.9712 33.4594 14.5597 33.4594 15.2585ZM42.4149 8.49071H39.4478V19.1666H36.9857V8.49071H34.0185V5.93439H42.4059V8.49071H42.4149Z" fill="#292C2E"/>
<path d="M58.3239 14.3022C58.2737 14.9688 58.1558 15.6282 57.9722 16.27C57.8104 16.8569 57.5445 17.4086 57.1876 17.8976C56.8337 18.3731 56.3728 18.7547 55.8438 19.0102C55.2936 19.2861 54.6262 19.424 53.8416 19.424C52.9397 19.424 52.1732 19.2677 51.5419 18.9551C50.9222 18.647 50.3933 18.1776 50.0087 17.5942C49.5887 16.9214 49.3007 16.1719 49.1609 15.3873C48.9701 14.4032 48.8794 13.4018 48.8904 12.3988C48.882 11.4588 48.9788 10.5209 49.179 9.60336C49.3397 8.84331 49.6428 8.12205 50.0718 7.47922C50.4665 6.90969 50.9932 6.4485 51.605 6.13669C52.2273 5.82405 52.9668 5.66772 53.8236 5.66772C54.6894 5.66772 55.3928 5.80566 55.943 6.08152C56.4579 6.33093 56.9088 6.6993 57.2597 7.15738C57.5883 7.60857 57.8272 8.12084 57.9632 8.66542C58.1045 9.2213 58.207 9.78671 58.2698 10.3574H55.943C55.8889 10.0631 55.8257 9.77807 55.7536 9.5114C55.6959 9.26067 55.5919 9.02348 55.4469 8.81255C55.3011 8.61181 55.1091 8.45075 54.8878 8.34359C54.6533 8.22405 54.3376 8.16887 53.9408 8.16887C53.5257 8.15716 53.1131 8.23878 52.7323 8.40795C52.3947 8.57387 52.1169 8.84417 51.9387 9.18037C51.7403 9.53899 51.596 10.008 51.5058 10.5873C51.4103 11.3002 51.3681 12.0195 51.3795 12.739C51.3666 13.4424 51.4271 14.1452 51.5599 14.8355C51.6771 15.3689 51.8485 15.7919 52.0649 16.0861C52.2589 16.3719 52.5368 16.5876 52.8586 16.7022C53.1958 16.8165 53.5494 16.8725 53.9048 16.8677C54.2271 16.8811 54.5482 16.8181 54.8427 16.6838C55.0723 16.5675 55.2635 16.3853 55.3928 16.1597C55.5387 15.9083 55.6452 15.6353 55.7085 15.3505C55.7897 15.0378 55.8618 14.6884 55.943 14.293H58.3239V14.3022ZM68.1994 19.1666H65.7463V13.4562H62.0486V19.1666H59.5955V5.93439H62.0486V10.8723H65.7463V5.93439H68.1994V19.1666ZM78.5438 19.1666H75.9735L75.2971 16.4355H72.0323L71.365 19.1666H68.8848L72.4382 5.93439H74.8732L78.5438 19.1666ZM74.6838 13.9712L73.6737 9.7137L72.6366 13.9712H74.6838ZM85.7498 19.1666L81.998 11.1114V19.1666H79.5449V5.93439H81.9529L85.7317 13.9344V5.93439H88.1668V19.1666H85.7498ZM99.2327 19.1666H97.2396V17.824C97.1129 18.1192 96.9288 18.3851 96.6985 18.6056C96.4897 18.8012 96.2524 18.9625 95.995 19.0838C95.7422 19.1995 95.4753 19.2799 95.2014 19.3229C94.936 19.3668 94.6675 19.3883 94.3987 19.3873C93.4968 19.3873 92.7393 19.2125 92.135 18.8539C91.5327 18.4988 91.0297 17.9923 90.674 17.3827C90.2826 16.6954 90.0168 15.9414 89.8894 15.1574C89.7298 14.2469 89.6513 13.3236 89.6549 12.3988C89.6549 7.9114 91.3083 5.66772 94.6152 5.66772C95.4359 5.66772 96.1213 5.80566 96.6895 6.07232C97.2246 6.31769 97.6969 6.68591 98.0693 7.14818C98.4219 7.60202 98.6797 8.12462 98.8269 8.68382C98.9818 9.26532 99.0607 9.86515 99.0614 10.4677H96.5542C96.5535 10.191 96.5355 9.91453 96.5001 9.64014C96.4698 9.37457 96.387 9.11804 96.2566 8.88611C96.116 8.65189 95.9126 8.46362 95.6704 8.34359C95.4088 8.20565 95.0571 8.13209 94.6061 8.13209C94.2121 8.11807 93.8202 8.19673 93.4608 8.36198C93.1408 8.52215 92.8742 8.77479 92.6942 9.08841C92.4731 9.48659 92.3264 9.92307 92.2613 10.3758C92.1636 11.0021 92.1183 11.6358 92.126 12.27C92.1178 12.9677 92.157 13.6652 92.2432 14.3574C92.3244 14.9367 92.4597 15.4057 92.6581 15.7551C92.8353 16.0911 93.1091 16.3639 93.4427 16.5367C93.7674 16.7022 94.1823 16.785 94.6873 16.785C94.9665 16.7863 95.244 16.7397 95.508 16.647C95.763 16.5577 95.9944 16.4099 96.1844 16.2148C96.3867 15.9999 96.5406 15.7426 96.6353 15.4608C96.7493 15.1051 96.7982 14.7311 96.7796 14.3574H94.4709V11.9206H99.2508V19.1666H99.2327ZM109 19.1666H100.775V5.93439H108.856V8.49991H103.228V10.9367H108.405V13.5022H103.228V16.5827H109V19.1666Z" fill="white"/>
</g>
<defs>
<clipPath id="clip0_1824_4785">
<rect width="109" height="24" fill="white" transform="translate(0 0.5)"/>
</clipPath>
</defs>
</svg>
