<svg width="109" height="25" viewBox="0 0 109 25" fill="none" xmlns="http://www.w3.org/2000/svg">
<g clip-path="url(#clip0_1824_4789)">
<path fill-rule="evenodd" clip-rule="evenodd" d="M7.81552 0.027832C9.93026 0.068211 11.9426 0.94986 13.4106 2.47916C14.8786 4.00845 15.6822 6.06036 15.6449 8.18426C15.6634 9.23524 15.4754 10.2796 15.0919 11.2576C14.7084 12.2356 14.1368 13.1282 13.4097 13.8843C12.6827 14.6405 11.8144 15.2453 10.8545 15.6644C9.89467 16.0835 8.86201 16.3085 7.81552 16.3267C5.70448 16.2863 3.69568 15.4062 2.23031 13.8795C0.764931 12.3528 -0.0372243 10.3044 7.20134e-06 8.18426C-0.0372553 6.06273 0.764463 4.0129 2.22946 2.48401C3.69445 0.95511 5.70322 0.0718613 7.81552 0.027832Z" fill="#2A609F"/>
<path fill-rule="evenodd" clip-rule="evenodd" d="M19.9838 21.2011H74.5812V2.70947H15.186C15.441 3.00826 15.6734 3.32571 15.8814 3.65919C16.8068 5.16853 17.2165 6.93994 17.0484 8.70443C16.8802 10.4689 16.1433 12.1301 14.9496 13.4357C14.7557 13.6372 14.5515 13.8283 14.3377 14.0084L14.6159 14.4553L14.8523 14.8324L15.047 15.1396L15.5615 15.9916C15.7399 15.9499 15.9255 15.9499 16.1039 15.9916C16.3872 16.0073 16.6589 16.1096 16.8826 16.2849C17.0135 16.3819 17.1225 16.5057 17.2025 16.648L19.7752 20.838L19.9838 21.2011Z" fill="#2A609F"/>
<path fill-rule="evenodd" clip-rule="evenodd" d="M66.2928 6.42449H71.1879V8.49153H68.4066V10.8519H70.8542V12.9049H68.4066V15.4189H71.1879V17.4859H66.3206L66.2928 6.42449ZM19.0103 6.42449H23.9055V8.49153H21.1242V10.8519H23.5578V12.9049H21.1242V15.4189H23.9055V17.4859H19.0382L19.0103 6.42449ZM24.4478 6.42449H26.8815L27.6603 9.21778H27.7437L28.4807 6.42449H30.8588L28.7589 11.7178L31.0118 17.4859H28.6059L27.6742 14.2457H27.6046L26.6868 17.4859H24.267L26.4643 11.7178L24.4478 6.42449ZM31.8044 9.21778C31.7641 8.4501 32.0067 7.6944 32.4859 7.09488C32.753 6.81592 33.0792 6.60081 33.4402 6.46544C33.8013 6.33006 34.188 6.27788 34.5718 6.31275C34.9422 6.28065 35.3151 6.32614 35.667 6.44635C36.0189 6.56656 36.3421 6.75886 36.6161 7.01108C37.0691 7.5093 37.3089 8.16646 37.2836 8.84069V9.00829C37.2836 9.00829 37.2836 9.10605 37.2836 9.16192L35.2811 9.52504C35.2635 9.24315 35.1776 8.96985 35.0308 8.72896C34.9881 8.63075 34.9182 8.54694 34.8295 8.48751C34.7407 8.42808 34.6368 8.39554 34.5301 8.39376C34.4108 8.38526 34.2924 8.41994 34.1964 8.49153C34.1105 8.54277 34.0388 8.61479 33.9878 8.70102C33.9366 8.78781 33.899 8.88204 33.8765 8.98035C33.8704 9.0687 33.8704 9.15737 33.8765 9.24572V14.8323C33.8788 14.9835 33.9169 15.1319 33.9878 15.2653C34.0527 15.4049 34.2195 15.4748 34.4884 15.4748C34.588 15.4728 34.6853 15.4447 34.7707 15.3933C34.8561 15.3418 34.9266 15.2688 34.9751 15.1815C35.12 14.9216 35.1921 14.6272 35.1837 14.3295L37.2419 14.6088C37.2667 15.379 37.015 16.1325 36.5327 16.7318C36.2842 17.0096 35.976 17.227 35.6315 17.3673C35.2869 17.5077 34.915 17.5674 34.544 17.5418C34.1673 17.5739 33.7881 17.5285 33.4294 17.4085C33.0707 17.2884 32.7402 17.0962 32.458 16.8435C31.9859 16.2524 31.7526 15.5045 31.8044 14.7485V9.21778ZM38.4101 6.42449H40.4543V10.81H41.845V6.42449H43.9171V17.4859H41.7894V12.9049H40.3987V17.4859H38.3823L38.4101 6.42449ZM46.754 6.42449H49.2989L51.3293 17.4859H49.146L48.8261 15.3211H47.2686L46.9487 17.4859H44.7654L46.754 6.42449ZM48.3116 11.5223L48.0891 9.28761H47.9917L47.7692 11.5223L47.5467 13.296H48.5063L48.3116 11.5223ZM52.1915 6.42449H54.0133L55.2649 9.63678L55.9741 11.6619H56.0576V6.42449H58.0879V17.4859H56.3218L55.0702 14.2597L54.347 12.1647H54.2636V17.4859H52.1915V6.42449ZM59.5898 9.21778C59.5519 8.44574 59.8052 7.68773 60.2991 7.09488C60.5643 6.82133 60.8861 6.60953 61.2417 6.4744C61.5973 6.33927 61.9781 6.28409 62.3573 6.31275C62.7793 6.30335 63.1993 6.37444 63.5949 6.52225C63.9297 6.65097 64.2297 6.85665 64.4711 7.12281C64.6997 7.37915 64.8662 7.68505 64.9578 8.01667C65.0546 8.38536 65.0875 8.76804 65.0551 9.14795L63.0387 9.51108C63.0423 9.23784 62.9752 8.96834 62.844 8.72896C62.8013 8.63075 62.7314 8.54694 62.6427 8.48751C62.5539 8.42808 62.45 8.39554 62.3433 8.39376C62.224 8.38526 62.1056 8.41994 62.0096 8.49153C61.9269 8.54682 61.856 8.61803 61.801 8.70102C61.7222 8.87266 61.6751 9.05721 61.6619 9.24572V14.8323C61.6642 14.9835 61.7023 15.1319 61.7732 15.2653C61.8427 15.4049 62.0096 15.4748 62.2599 15.4748C62.4415 15.4816 62.6193 15.422 62.7605 15.3072C62.8227 15.2538 62.8723 15.1873 62.906 15.1125C62.9396 15.0377 62.9565 14.9563 62.9552 14.8742V13.1982H62.246V11.3267H65.0273V14.8044C65.0536 15.1791 65.0043 15.5553 64.8824 15.9105C64.7606 16.2656 64.5686 16.5925 64.3181 16.8714C64.0548 17.1193 63.7438 17.3104 63.4041 17.4329C63.0645 17.5554 62.7035 17.6067 62.3433 17.5837C61.9644 17.6177 61.5825 17.5733 61.2213 17.4532C60.8601 17.3331 60.5273 17.1398 60.2434 16.8854C59.7713 16.2943 59.538 15.5464 59.5898 14.7904V9.21778Z" fill="white"/>
<path fill-rule="evenodd" clip-rule="evenodd" d="M11.8763 3.98028L8.6082 1.91324C8.57556 1.89041 8.53673 1.87817 8.49695 1.87817C8.45717 1.87817 8.41835 1.89041 8.3857 1.91324C8.34964 1.93981 8.3224 1.97668 8.30751 2.01903C8.29263 2.06138 8.2908 2.10726 8.30226 2.15067C8.37179 2.48587 8.45523 2.82106 8.52476 3.15626C8.52476 3.22609 8.52477 3.26799 8.44133 3.28196C7.54835 3.29641 6.67006 3.5125 5.87154 3.91421C5.07303 4.31592 4.37476 4.89295 3.82849 5.60254C3.28222 6.31213 2.90195 7.13608 2.71587 8.01333C2.52978 8.89058 2.54265 9.79865 2.75352 10.6702C2.75352 10.768 2.75352 10.8797 2.9204 10.9216C2.95423 10.9412 2.9926 10.9516 3.03165 10.9516C3.07071 10.9516 3.10908 10.9412 3.14291 10.9216C3.1699 10.8999 3.19149 10.8723 3.20598 10.8407C3.22046 10.8092 3.22744 10.7747 3.22635 10.7401C3.40713 7.61157 6.41096 6.21492 8.99759 6.01939C9.06712 6.01939 9.10884 6.01939 9.12275 6.11715C9.12275 6.56408 9.31744 7.05291 9.41479 7.5138C9.41686 7.55675 9.43297 7.59781 9.46063 7.63063C9.48828 7.66345 9.52593 7.6862 9.56776 7.69537C9.66511 7.69537 9.72073 7.69537 9.77636 7.56967C10.5134 6.48028 11.2366 5.36296 11.9319 4.25961C11.9496 4.23873 11.9623 4.2141 11.9691 4.18757C11.976 4.16104 11.9768 4.1333 11.9714 4.10642C11.9661 4.07955 11.9547 4.05424 11.9382 4.03239C11.9218 4.01055 11.9006 3.99273 11.8763 3.98028ZM3.76871 12.3602L7.06457 14.4272C7.09722 14.45 7.13604 14.4623 7.17583 14.4623C7.21561 14.4623 7.25443 14.45 7.28708 14.4272C7.30929 14.3916 7.32107 14.3505 7.32107 14.3085C7.32107 14.2665 7.30929 14.2254 7.28708 14.1898C7.28708 13.8546 7.1341 13.5194 7.07848 13.1842C7.07848 13.1842 7.07848 13.0725 7.14801 13.0725C8.04249 13.0585 8.92232 12.8422 9.7221 12.4397C10.5219 12.0372 11.221 11.4588 11.7676 10.7475C12.3141 10.0362 12.6939 9.21038 12.8789 8.33136C13.0638 7.45233 13.0491 6.54275 12.8358 5.67022C12.8359 5.61817 12.8199 5.56737 12.79 5.52484C12.7601 5.48231 12.7178 5.45015 12.6689 5.43279C12.6356 5.4117 12.5971 5.40051 12.5577 5.40051C12.5183 5.40051 12.4797 5.4117 12.4464 5.43279C12.4022 5.48428 12.3733 5.54719 12.363 5.61436C12.1683 8.63112 9.16447 10.1116 6.56393 10.2652C6.4944 10.2652 6.45268 10.2652 6.45268 10.1535C6.38315 9.7205 6.25799 9.21771 6.16064 8.75682C6.16064 8.64508 6.16064 8.58922 6.00767 8.57525C5.8547 8.56129 5.84079 8.57525 5.79907 8.68699C5.06202 9.77637 4.40841 10.8937 3.62964 11.997C3.57985 12.0156 3.53942 12.0532 3.51725 12.1016C3.49509 12.1501 3.49299 12.2054 3.51143 12.2554C3.52987 12.3054 3.56734 12.346 3.61559 12.3683C3.66384 12.3906 3.71891 12.3927 3.76871 12.3741V12.3602Z" fill="white"/>
<path fill-rule="evenodd" clip-rule="evenodd" d="M18.3428 21.3406L15.7006 17.0529C15.6118 16.9088 15.4989 16.7812 15.3668 16.6758C15.1893 16.5391 14.9816 16.4474 14.7613 16.4085C14.541 16.3696 14.3146 16.3846 14.1013 16.4524L13.5033 15.4887L13.3086 15.1814L13.0722 14.7904L12.7941 14.3295C13.0082 14.1449 13.2124 13.9491 13.406 13.7429C14.6236 12.4029 15.3755 10.7023 15.5485 8.89658C15.7215 7.09083 15.3064 5.27746 14.3655 3.7289C14.0933 3.27895 13.7765 2.85782 13.4199 2.47192C12.8411 1.85466 12.1702 1.33164 11.4312 0.921636C10.5669 0.456617 9.62356 0.158182 8.64991 0.041748C8.35787 0.041748 8.05193 0.041748 7.75989 0.041748C6.27312 0.0450343 4.8209 0.492297 3.58791 1.32666C2.47724 2.08041 1.56961 3.09854 0.945997 4.29023C0.322378 5.48191 0.00215979 6.81009 0.0139075 8.15627C0.00685374 9.69969 0.430826 11.2142 1.23769 12.5278C1.99809 13.784 3.0991 14.7966 4.41181 15.4472C5.72452 16.0977 7.19459 16.3592 8.64991 16.201C9.4637 16.1123 10.2576 15.8905 11.0001 15.5445L11.3895 15.9915L12.3908 17.6395C12.1865 17.881 12.0631 18.181 12.0382 18.4968C12.0132 18.8127 12.0879 19.1285 12.2517 19.3993L15.2834 24.3714C15.3799 24.5313 15.5075 24.6702 15.6586 24.7797C15.8096 24.8892 15.981 24.9671 16.1626 25.0087C16.3442 25.0504 16.5323 25.055 16.7157 25.0223C16.8991 24.9896 17.0741 24.9202 17.2303 24.8183L17.3276 24.7485L18.3706 24.0501C18.6863 23.8316 18.9068 23.5001 18.9869 23.1236C19.0671 22.7471 19.0008 22.354 18.8017 22.025L18.3428 21.3406ZM2.25287 11.8015C1.34576 10.3061 1.02009 8.52711 1.33831 6.80548C1.65652 5.08385 2.59623 3.54073 3.97729 2.47192L4.26933 2.26242C5.5771 1.38333 7.16016 1.01567 8.71944 1.2289H8.8446C9.71272 1.36831 10.5446 1.67964 11.2918 2.14479C12.0391 2.60994 12.6868 3.21962 13.1974 3.9384C13.2808 4.06409 13.3782 4.18979 13.4616 4.32946C13.7041 4.72349 13.909 5.13969 14.0735 5.57247C14.4378 6.56262 14.5803 7.62128 14.4907 8.67303C14.4094 9.71863 14.0947 10.7324 13.5698 11.6391C13.045 12.5458 12.3235 13.3221 11.459 13.9105C10.6247 14.4703 9.67284 14.8288 8.67772 14.9579H8.46912C6.84669 15.1154 5.22436 14.657 3.92166 13.673C3.25385 13.1594 2.68781 12.5246 2.25287 11.8015Z" fill="white"/>
<path fill-rule="evenodd" clip-rule="evenodd" d="M105.746 2.70947H74.456V21.2011H105.746C106.181 21.1938 106.61 21.1006 107.008 20.9268C107.407 20.753 107.768 20.502 108.07 20.1881C108.372 19.8743 108.61 19.5037 108.769 19.0976C108.929 18.6915 109.007 18.2577 109 17.8212V6.10333C109.015 5.22038 108.681 4.36747 108.071 3.73137C107.461 3.09527 106.625 2.72782 105.746 2.70947Z" fill="white"/>
<path fill-rule="evenodd" clip-rule="evenodd" d="M79.5319 9.86017C79.5654 9.97915 79.617 10.0922 79.6849 10.1954C79.787 10.3178 79.9093 10.4217 80.0464 10.5026C80.258 10.6314 80.4815 10.739 80.714 10.8239C81.1233 10.99 81.5109 11.2058 81.8682 11.4663C82.1252 11.6657 82.3422 11.9121 82.5079 12.1926C82.6567 12.471 82.7555 12.7736 82.8 13.0864C82.8469 13.4663 82.8702 13.8488 82.8695 14.2317C82.8768 14.7011 82.8301 15.1697 82.7304 15.6283C82.6639 16.0047 82.5168 16.3621 82.2993 16.6758C82.079 16.9726 81.7871 17.2081 81.451 17.3602C81.0087 17.5347 80.5352 17.6155 80.0604 17.5976C79.6328 17.604 79.2079 17.5281 78.8088 17.3741C78.4786 17.2377 78.1837 17.0276 77.9465 16.7596C77.7244 16.4903 77.5631 16.1758 77.4737 15.8378C77.3647 15.4805 77.3131 15.1081 77.3207 14.7345L79.4067 14.3155C79.4016 14.6262 79.4583 14.9349 79.5736 15.2233C79.6217 15.3243 79.6995 15.4079 79.7965 15.4629C79.8936 15.5179 80.0051 15.5415 80.116 15.5306C80.2416 15.5372 80.3652 15.4975 80.4636 15.4188C80.5553 15.3477 80.6232 15.2503 80.6583 15.1395C80.7135 15.0062 80.7464 14.8646 80.7557 14.7205C80.7557 14.5669 80.7557 14.3993 80.7557 14.2456C80.7799 14.0602 80.7799 13.8724 80.7557 13.687C80.7278 13.553 80.676 13.4253 80.6027 13.3099C80.516 13.196 80.4072 13.101 80.2829 13.0306C80.1276 12.9378 79.9648 12.8583 79.7961 12.7931C79.3542 12.6082 78.9343 12.374 78.5445 12.0948C78.2621 11.887 78.0175 11.6319 77.8214 11.3406C77.6563 11.0773 77.5473 10.7825 77.5015 10.4747C77.4432 10.1475 77.4152 9.8155 77.4181 9.48308C77.4176 9.05937 77.469 8.63721 77.5711 8.22609C77.6618 7.86476 77.8277 7.5268 78.0578 7.23447C78.2875 6.95409 78.5776 6.72966 78.9061 6.57805C79.3129 6.41649 79.7483 6.34043 80.1855 6.35459C80.6345 6.33916 81.0812 6.42507 81.4927 6.60598C81.8111 6.76747 82.091 6.99615 82.3132 7.27637C82.5073 7.54516 82.6489 7.84847 82.7304 8.17023C82.8113 8.48509 82.8534 8.80875 82.8556 9.13392L80.9226 9.58084C80.9305 9.43197 80.9305 9.28279 80.9226 9.13392C80.9066 9.00449 80.8739 8.87772 80.8252 8.75682C80.7799 8.65159 80.708 8.5601 80.6166 8.49146C80.5132 8.42449 80.392 8.39042 80.2689 8.39369C80.1479 8.38916 80.0293 8.42886 79.9352 8.50543C79.8554 8.57641 79.7894 8.66165 79.7405 8.75682C79.6964 8.8638 79.6682 8.97676 79.6571 9.09202C79.6507 9.21763 79.6507 9.3435 79.6571 9.46911C79.6071 9.59665 79.5653 9.72727 79.5319 9.86017ZM105.092 14.7903C105.128 15.17 105.086 15.5529 104.969 15.9156C104.852 16.2783 104.662 16.6131 104.411 16.8993C104.134 17.1424 103.812 17.3281 103.464 17.4456C103.115 17.5631 102.747 17.61 102.38 17.5836C102.007 17.6318 101.628 17.5919 101.273 17.4672C100.918 17.3425 100.597 17.1364 100.335 16.8653C100.073 16.5942 99.878 16.2655 99.7647 15.9053C99.6514 15.5451 99.6233 15.1633 99.6826 14.7903V9.11995C99.6505 8.73837 99.697 8.35426 99.819 7.99146C99.941 7.62867 100.136 7.29494 100.392 7.01101C100.939 6.5389 101.647 6.29854 102.367 6.34062C102.737 6.3086 103.11 6.35143 103.463 6.46657C103.817 6.58171 104.144 6.76684 104.425 7.01101C104.667 7.30197 104.849 7.63806 104.961 7.99998C105.073 8.3619 105.113 8.74251 105.078 9.11995L105.092 14.7903ZM102.311 8.35179C102.15 8.35174 101.993 8.40582 101.866 8.50543C101.819 8.57941 101.788 8.66201 101.774 8.74836C101.759 8.8347 101.762 8.92306 101.782 9.00822V14.8741C101.77 14.9706 101.779 15.0688 101.811 15.1609C101.842 15.253 101.894 15.3365 101.963 15.4049C102.087 15.511 102.246 15.5659 102.408 15.5585C102.487 15.5642 102.566 15.5534 102.64 15.527C102.714 15.5006 102.782 15.459 102.839 15.4049C102.908 15.3365 102.961 15.253 102.992 15.1609C103.023 15.0688 103.033 14.9706 103.02 14.8741V9.00822C103.031 8.91184 103.02 8.81425 102.989 8.72248C102.958 8.63072 102.907 8.54705 102.839 8.47749C102.72 8.38677 102.572 8.34217 102.422 8.35179H102.311ZM98.2363 17.4859H96.2198V12.3183L95.7053 14.0362L95.302 15.3211H93.9113L93.4663 13.9244L92.9796 12.2903H92.9101V17.4998H90.8241V6.42442H92.771L93.814 9.38531L94.5371 11.5781H94.6206L95.3576 9.32945L96.4006 6.42442H98.3336L98.2363 17.4859ZM89.3639 14.7903C89.3996 15.17 89.3576 15.5529 89.2404 15.9156C89.1232 16.2783 88.9334 16.6131 88.6825 16.8993C88.4058 17.1424 88.084 17.3281 87.7355 17.4456C87.387 17.5631 87.0188 17.61 86.6521 17.5836C86.279 17.6318 85.9 17.5919 85.5449 17.4672C85.1899 17.3425 84.8687 17.1364 84.6069 16.8653C84.345 16.5942 84.1496 16.2655 84.0364 15.9053C83.9231 15.5451 83.8949 15.1633 83.9542 14.7903V6.41045H86.0263V14.7903C86.0163 14.8879 86.0286 14.9864 86.0623 15.0784C86.0961 15.1704 86.1504 15.2534 86.221 15.3211C86.3416 15.4228 86.4947 15.4773 86.6521 15.4747C86.8099 15.48 86.9639 15.4251 87.0832 15.3211C87.1513 15.2521 87.203 15.1685 87.2343 15.0766C87.2656 14.9846 87.2758 14.8868 87.264 14.7903V6.41045H89.3639V14.7903Z" fill="#2A609F"/>
</g>
<defs>
<clipPath id="clip0_1824_4789">
<rect width="109" height="25" fill="white"/>
</clipPath>
</defs>
</svg>
